<svg xmlns="http://www.w3.org/2000/svg" width="24" height="24" viewBox="0 0 24 24" fill="none" stroke="currentColor" stroke-width="2" stroke-linecap="round" stroke-linejoin="round"><path d="M10.68 13.31a16 16 0 0 0 3.41 2.6l1.27-1.27a2 2 0 0 1 2.11-.45 12.84 12.84 0 0 0 2.81.7A2 2 0 0 1 22 16.92v3a2 2 0 0 1-2.18 2A19.79 19.79 0 0 1 8.63 19a19.42 19.42 0 0 1-3.33-4.4"/><path d="M5 5.36A2 2 0 0 1 7 4h3a2 2 0 0 1 2 1.72 12.84 12.84 0 0 0 .7 2.81 2 2 0 0 1-.45 2.11L10.9 11.9"/><line x1="2" y1="2" x2="22" y2="22"/></svg>
